<svg width="32" height="32" viewBox="0 0 32 32" fill="none" xmlns="http://www.w3.org/2000/svg">
<path fill-rule="evenodd" clip-rule="evenodd" d="M17 5C17 4.73478 16.8946 4.48043 16.7071 4.29289C16.5196 4.10536 16.2652 4 16 4C15.7348 4 15.4804 4.10536 15.2929 4.29289C15.1054 4.48043 15 4.73478 15 5V7H11C9.67392 7 8.40215 7.52678 7.46447 8.46447C6.52679 9.40215 6 10.6739 6 12V15C6.0002 16.0815 6.35093 17.1338 6.9996 17.9992C7.64828 18.8646 8.55997 19.4964 9.598 19.8C8.4798 20.6378 7.57237 21.7248 6.94778 22.9746C6.3232 24.2245 5.99868 25.6028 6 27C6 27.2652 6.10536 27.5196 6.2929 27.7071C6.48043 27.8946 6.73479 28 7 28H25C25.2652 28 25.5196 27.8946 25.7071 27.7071C25.8946 27.5196 26 27.2652 26 27C26.0013 25.6028 25.6768 24.2245 25.0522 22.9746C24.4276 21.7248 23.5202 20.6378 22.402 19.8C23.44 19.4964 24.3517 18.8646 25.0004 17.9992C25.6491 17.1338 25.9998 16.0815 26 15V12C26 10.6739 25.4732 9.40215 24.5355 8.46447C23.5979 7.52678 22.3261 7 21 7H17V5ZM15 13.5C15 13.8978 14.842 14.2794 14.5607 14.5607C14.2794 14.842 13.8978 15 13.5 15C13.1022 15 12.7206 14.842 12.4393 14.5607C12.158 14.2794 12 13.8978 12 13.5C12 13.1022 12.158 12.7206 12.4393 12.4393C12.7206 12.158 13.1022 12 13.5 12C13.8978 12 14.2794 12.158 14.5607 12.4393C14.842 12.7206 15 13.1022 15 13.5ZM18.5 15C18.8978 15 19.2794 14.842 19.5607 14.5607C19.842 14.2794 20 13.8978 20 13.5C20 13.1022 19.842 12.7206 19.5607 12.4393C19.2794 12.158 18.8978 12 18.5 12C18.1022 12 17.7206 12.158 17.4393 12.4393C17.158 12.7206 17 13.1022 17 13.5C17 13.8978 17.158 14.2794 17.4393 14.5607C17.7206 14.842 18.1022 15 18.5 15Z" fill="white"/>
</svg>
