<svg width="35" height="36" viewBox="0 0 35 36" fill="none" xmlns="http://www.w3.org/2000/svg">
<path d="M29.3834 18.2444C29.3834 18.5877 29.1749 18.8969 28.8513 19.0206L23.8609 20.9227C22.1062 21.5938 20.7279 22.9887 20.0839 24.7516L18.1861 29.9475C18.1736 29.9877 18.1425 30.0155 18.1238 30.0495C18.1083 30.0774 18.0927 30.1052 18.0709 30.133C18.0398 30.1732 18.0087 30.2104 17.9714 30.2413C17.9123 30.2939 17.85 30.3372 17.7785 30.3712C17.7318 30.3866 17.6883 30.4052 17.6416 30.4114C17.5949 30.4238 17.5514 30.4269 17.5047 30.4269L17.3585 30.4114C17.3118 30.4052 17.2682 30.3897 17.2216 30.3712C17.1469 30.3403 17.0816 30.2939 17.0225 30.2382C16.9851 30.2073 16.9571 30.1701 16.926 30.133C16.9105 30.1114 16.8949 30.0866 16.8793 30.0619C16.8545 30.0217 16.8233 29.9908 16.8078 29.9475L14.9099 24.7516C14.269 22.9887 12.8939 21.5938 11.1391 20.9227L6.15494 19.0206C5.83137 18.8969 5.6167 18.5877 5.6167 18.2444C5.6167 17.8856 5.85315 17.5639 6.1985 17.4557L10.7627 16.0268C12.7383 15.4083 14.297 13.8866 14.9659 11.9412L16.8233 6.48557C16.8451 6.42371 16.8731 6.36804 16.9073 6.31546C16.9291 6.28144 16.954 6.24742 16.9851 6.21959C17.0536 6.14536 17.1376 6.08969 17.2402 6.04948C17.2682 6.03711 17.3025 6.02784 17.3367 6.02165C17.3865 6.00619 17.4456 6 17.5016 6C17.5576 6 17.6136 6.00619 17.6665 6.02165C17.7007 6.02784 17.7349 6.03711 17.7629 6.04948C17.8532 6.08351 17.934 6.13918 17.9994 6.20103C18.0274 6.22887 18.0492 6.2567 18.0741 6.28454C18.1207 6.34639 18.1581 6.40825 18.1829 6.48248L20.0403 11.9382C20.703 13.8866 22.2649 15.4052 24.2374 16.0237L28.8016 17.4526C29.1531 17.5608 29.3834 17.8794 29.3834 18.2413V18.2444Z" fill="white"/>
</svg>
