<svg width="61" height="60" viewBox="0 0 61 60" fill="none" xmlns="http://www.w3.org/2000/svg">
<g filter="url(#filter0_d_80_2039)">
<path d="M29.7798 43.648C29.2398 40.552 27.0438 36.664 22.8678 33.532C20.8158 31.984 18.7278 30.976 16.6758 30.544V29.032C20.7438 28.06 24.7398 25.324 27.2958 21.616C28.5918 19.744 29.4198 17.908 29.7798 16H31.2918C31.9038 19.636 34.7118 23.668 38.5278 26.368C40.3998 27.7 42.3438 28.6 44.3238 29.032V30.544C40.3278 31.372 35.6838 34.936 33.3798 38.572C32.2278 40.408 31.5438 42.1 31.2918 43.648H29.7798Z" fill="white"/>
</g>
<defs>
<filter id="filter0_d_80_2039" x="0.675781" y="0" width="59.6484" height="59.6479" filterUnits="userSpaceOnUse" color-interpolation-filters="sRGB">
<feFlood flood-opacity="0" result="BackgroundImageFix"/>
<feColorMatrix in="SourceAlpha" type="matrix" values="0 0 0 0 0 0 0 0 0 0 0 0 0 0 0 0 0 0 127 0" result="hardAlpha"/>
<feOffset/>
<feGaussianBlur stdDeviation="8"/>
<feComposite in2="hardAlpha" operator="out"/>
<feColorMatrix type="matrix" values="0 0 0 0 1 0 0 0 0 1 0 0 0 0 1 0 0 0 1 0"/>
<feBlend mode="normal" in2="BackgroundImageFix" result="effect1_dropShadow_80_2039"/>
<feBlend mode="normal" in="SourceGraphic" in2="effect1_dropShadow_80_2039" result="shape"/>
</filter>
</defs>
</svg>
