<svg width="50" height="51" viewBox="0 0 50 51" fill="none" xmlns="http://www.w3.org/2000/svg">
<path d="M43 25.5468C43 26.0669 42.6843 26.5353 42.1941 26.7227L34.635 29.6038C31.9771 30.6204 29.8894 32.7332 28.9139 35.4035L26.0391 43.2739C26.0203 43.3348 25.9732 43.3769 25.9449 43.4285C25.9213 43.4706 25.8978 43.5128 25.8648 43.5549C25.8176 43.6159 25.7705 43.6721 25.714 43.7189C25.6244 43.7986 25.5302 43.8641 25.4218 43.9157C25.3511 43.9391 25.2851 43.9672 25.2144 43.9766C25.1437 43.9953 25.0778 44 25.0071 44L24.7856 43.9766C24.7149 43.9672 24.6489 43.9438 24.5782 43.9157C24.4651 43.8688 24.3661 43.7986 24.2766 43.7142C24.2201 43.6674 24.1776 43.6112 24.1305 43.5549C24.107 43.5222 24.0834 43.4847 24.0598 43.4472C24.0221 43.3863 23.975 43.3395 23.9514 43.2739L21.0767 35.4035C20.1059 32.7332 18.0229 30.6204 15.365 29.6038L7.81529 26.7227C7.32517 26.5353 7 26.0669 7 25.5468C7 25.0034 7.35816 24.5162 7.88127 24.3522L14.7947 22.1879C17.7873 21.2509 20.1483 18.9461 21.1615 15.9994L23.975 7.7355C24.008 7.64181 24.0504 7.55748 24.1022 7.47784C24.1352 7.42631 24.1729 7.37478 24.2201 7.33262C24.3237 7.22018 24.451 7.13586 24.6065 7.07496C24.6489 7.05622 24.7007 7.04216 24.7526 7.03279C24.828 7.00937 24.9175 7 25.0024 7C25.0872 7 25.172 7.00937 25.2521 7.03279C25.304 7.04216 25.3558 7.05622 25.3982 7.07496C25.5349 7.12649 25.6574 7.21081 25.7564 7.30451C25.7988 7.34667 25.8318 7.38883 25.8695 7.431C25.9402 7.52469 25.9967 7.61838 26.0344 7.73082L28.8479 15.9947C29.8517 18.9461 32.2174 21.2463 35.2053 22.1832L42.1187 24.3476C42.6513 24.5115 43 24.994 43 25.5422V25.5468Z" fill="#323232"/>
</svg>
